<?xml version="1.0" encoding="UTF-8"?>
<svg width="600" height="400" viewBox="0 0 600 400" xmlns="http://www.w3.org/2000/svg">
    <!-- Background -->
    <rect width="600" height="400" fill="#f8f9fa" rx="20"/>
    
    <!-- Left Book Stack -->
    <g transform="translate(100, 150)">
        <!-- Book 1 -->
        <rect x="0" y="0" width="120" height="160" rx="5" fill="#4a69bd"/>
        <rect x="10" y="20" width="80" height="20" fill="white" opacity="0.5"/>
        <!-- Book 2 -->
        <rect x="20" y="-30" width="120" height="160" rx="5" fill="#686de0"/>
        <rect x="30" y="-10" width="80" height="20" fill="white" opacity="0.5"/>
        <!-- Book 3 -->
        <rect x="40" y="-60" width="120" height="160" rx="5" fill="#4834d4"/>
        <rect x="50" y="-40" width="80" height="20" fill="white" opacity="0.5"/>
    </g>

    <!-- Right Book Stack -->
    <g transform="translate(380, 150)">
        <!-- Book 1 -->
        <rect x="0" y="0" width="120" height="160" rx="5" fill="#eb4d4b"/>
        <rect x="10" y="20" width="80" height="20" fill="white" opacity="0.5"/>
        <!-- Book 2 -->
        <rect x="-20" y="-30" width="120" height="160" rx="5" fill="#ff7979"/>
        <rect x="-10" y="-10" width="80" height="20" fill="white" opacity="0.5"/>
        <!-- Book 3 -->
        <rect x="-40" y="-60" width="120" height="160" rx="5" fill="#f0932b"/>
        <rect x="-30" y="-40" width="80" height="20" fill="white" opacity="0.5"/>
    </g>

    <!-- Sharing Arrows -->
    <g transform="translate(300, 200)">
        <!-- Left Arrow -->
        <path d="M-60,-20 L-20,-20 L-20,-40 L20,0 L-20,40 L-20,20 L-60,20 Z" 
              fill="#6c5ce7" opacity="0.8"/>
        <!-- Right Arrow -->
        <path d="M60,20 L20,20 L20,40 L-20,0 L20,-40 L20,-20 L60,-20 Z" 
              fill="#6c5ce7" opacity="0.8"/>
    </g>

    <!-- Decorative Elements -->
    <circle cx="150" cy="50" r="30" fill="#a8e6cf" opacity="0.3"/>
    <circle cx="450" cy="350" r="40" fill="#ffd3b6" opacity="0.3"/>
    <circle cx="50" cy="350" r="20" fill="#ffaaa5" opacity="0.3"/>
    <circle cx="550" cy="50" r="25" fill="#ff8b94" opacity="0.3"/>
</svg> 